<svg width="19" height="14" viewBox="0 0 19 14" fill="none" xmlns="http://www.w3.org/2000/svg">
<rect y="0.5" width="19" height="13" rx="2" fill="#5378F6"/>
<path d="M5.33 9.5H4.28V4.81H5.4L7.08 7.029L7.724 8.016H7.801L7.752 7.071V4.81H8.802V9.5H7.682L5.953 7.26L5.358 6.378H5.288L5.33 7.239V9.5ZM11.5711 9.57C10.1361 9.57 9.2541 8.618 9.2541 7.155C9.2541 5.692 10.2481 4.74 11.8581 4.74C13.3281 4.74 14.2591 5.426 14.2591 6.553V6.609H13.0901V6.553C13.0901 6.007 12.7331 5.748 11.8301 5.748C10.7661 5.748 10.3671 6.112 10.3671 7.155C10.3671 8.198 10.7521 8.562 11.7811 8.562C12.8591 8.562 13.1881 8.394 13.2161 7.799H11.6271V7.022H14.2661V9.5H13.2931V8.492H13.2371C13.0761 9.108 12.5861 9.57 11.5711 9.57Z" fill="white"/>
</svg>
